<svg xmlns="http://www.w3.org/2000/svg" width="8" height="8.064" viewBox="0 0 8 8.064">
  <g id="fast-forward" transform="translate(8.767 8.064) rotate(180)">
    <g id="Double_Chevron_Right" transform="translate(0.767 0)">
      <path id="Path_131" data-name="Path 131" d="M89.313,3.673,85.839.149a.5.5,0,0,0-.712,0,.511.511,0,0,0,0,.719l3.12,3.164L85.127,7.2a.511.511,0,0,0,0,.719.5.5,0,0,0,.712,0l3.473-3.524A.525.525,0,0,0,89.313,3.673Z" transform="translate(-81.455 0)" fill="$lightBlue"/>
      <path id="Path_132" data-name="Path 132" d="M5.1,3.673,1.627.149a.5.5,0,0,0-.712,0,.511.511,0,0,0,0,.719L4.034,4.032.915,7.2a.511.511,0,0,0,0,.719.5.5,0,0,0,.712,0L5.1,4.392A.525.525,0,0,0,5.1,3.673Z" transform="translate(-0.767 0)" fill="$lightBlue"/>
    </g>
  </g>
</svg>
