<svg id="bell.icon" xmlns="http://www.w3.org/2000/svg" width="16" height="19.966" viewBox="0 0 16 19.966">
  <path id="Path_2" data-name="Path 2" d="M30.72,12.963V8.736A6.81,6.81,0,0,1,34.991,2.42a2.511,2.511,0,0,1,5.018,0A6.81,6.81,0,0,1,44.28,8.736v4.226a1.425,1.425,0,0,1,1.22,1.409v.964a1.424,1.424,0,0,1-1.421,1.424H39.916a2.511,2.511,0,1,1-4.831,0H30.921A1.424,1.424,0,0,1,29.5,15.336v-.964A1.425,1.425,0,0,1,30.72,12.963ZM37.5,18.6a1.154,1.154,0,0,0,1.008-1.7H36.492A1.155,1.155,0,0,0,37.5,18.6Zm0-17.239a1.148,1.148,0,0,0-1.032.652,6.814,6.814,0,0,1,2.064,0A1.148,1.148,0,0,0,37.5,1.364ZM30.864,15.336a.061.061,0,0,0,.057.06H44.079a.061.061,0,0,0,.057-.06v-.964a.061.061,0,0,0-.057-.059H43.6a.682.682,0,0,1-.682-.682V8.736a5.416,5.416,0,1,0-10.833,0V13.63a.682.682,0,0,1-.682.682h-.48a.061.061,0,0,0-.057.059Z" transform="translate(-29.5)" fill="#84c5f4"/>
  <path id="Path_3" data-name="Path 3" d="M175.324,101.611a.682.682,0,0,1,.682.682v4.894a.682.682,0,1,1-1.364,0v-4.894A.682.682,0,0,1,175.324,101.611Z" transform="translate(-169.763 -94.78)" fill="#84c5f4"/>
</svg>
