<svg id="preview.header.icon" xmlns="http://www.w3.org/2000/svg" width="16" height="16" viewBox="0 0 16 16">
  <path id="Path_4" data-name="Path 4" d="M15.67,7.309H14.43A6.5,6.5,0,0,0,8.691,1.57V.33A.33.33,0,0,0,8.361,0H7.639a.33.33,0,0,0-.33.33V1.57h0A6.5,6.5,0,0,0,1.57,7.309H.33a.33.33,0,0,0-.33.33v.722a.33.33,0,0,0,.33.33H1.57A6.5,6.5,0,0,0,7.309,14.43v1.24a.33.33,0,0,0,.33.33h.722a.33.33,0,0,0,.33-.33V14.43h0A6.5,6.5,0,0,0,14.43,8.691h1.24a.33.33,0,0,0,.33-.33V7.639A.33.33,0,0,0,15.67,7.309ZM4.107,8.691a.33.33,0,0,0,.33-.33V7.639a.33.33,0,0,0-.33-.33H3.036A5.027,5.027,0,0,1,7.309,3.036V4.107a.33.33,0,0,0,.33.33h.722a.33.33,0,0,0,.33-.33V3.036a5.027,5.027,0,0,1,4.274,4.273H11.893a.33.33,0,0,0-.33.33v.722a.33.33,0,0,0,.33.33h1.071a5.028,5.028,0,0,1-4.273,4.274V11.894a.33.33,0,0,0-.33-.33H7.639a.33.33,0,0,0-.33.33v1.071A5.028,5.028,0,0,1,3.036,8.691Z" fill="#84c5f4"/>
</svg>
