<svg id="switch.icon" xmlns="http://www.w3.org/2000/svg" width="16" height="17.454" viewBox="0 0 16 17.454">
  <g id="Group_66" data-name="Group 66" transform="translate(0)">
    <path id="Path_120" data-name="Path 120" d="M32.53,60.467a.727.727,0,0,0-.582,1.333,6.545,6.545,0,1,1-5.236,0,.727.727,0,0,0-.583-1.333,8,8,0,1,0,6.4,0Z" transform="translate(-21.331 -58.347)" fill="#62b0e8"/>
    <path id="Path_121" data-name="Path 121" d="M235.383,8a.727.727,0,0,0,.727-.727V.727a.727.727,0,1,0-1.455,0V7.273A.727.727,0,0,0,235.383,8Z" transform="translate(-227.384)" fill="#62b0e8"/>
  </g>
</svg>
